<svg xmlns="http://www.w3.org/2000/svg" width="66.115" height="66.578" viewBox="0 0 66.115 66.578">
  <path id="ic_alarm_24px" d="M68.115,14.62,52.908,1.86,48.644,6.918,63.85,19.678Zm-46.677-7.7L17.206,1.86,2,14.587l4.264,5.058L21.438,6.918ZM36.71,22.157H31.752V41.992l15.7,9.421,2.479-4.066L36.71,39.512ZM35.057,8.934A29.752,29.752,0,1,0,64.809,38.686,29.754,29.754,0,0,0,35.057,8.934Zm0,52.892A23.14,23.14,0,1,1,58.2,38.686,23.123,23.123,0,0,1,35.057,61.826Z" transform="translate(-2 -1.86)" fill="#fff"/>
</svg>
