<svg xmlns="http://www.w3.org/2000/svg" xmlns:xlink="http://www.w3.org/1999/xlink" width="94" height="92" viewBox="0 0 94 92">
  <defs>
    <filter id="Rectangle_26" x="0" y="0" width="94" height="92" filterUnits="userSpaceOnUse">
      <feOffset dy="3" input="SourceAlpha"/>
      <feGaussianBlur stdDeviation="3" result="blur"/>
      <feFlood flood-opacity="0.161"/>
      <feComposite operator="in" in2="blur"/>
      <feComposite in="SourceGraphic"/>
    </filter>
  </defs>
  <g id="Group_65" data-name="Group 65" transform="translate(-35.405 5.833)">
    <g transform="matrix(1, 0, 0, 1, 35.4, -5.83)" filter="url(#Rectangle_26)">
      <rect id="Rectangle_26-2" data-name="Rectangle 26" width="76" height="74" rx="15" transform="translate(9 6)" fill="#fff"/>
    </g>
    <path id="ic_burst_mode_24px" d="M1,5H4.732V31.123H1ZM8.464,5H12.2V31.123H8.464ZM40.184,5H17.793a1.871,1.871,0,0,0-1.866,1.866V29.257a1.871,1.871,0,0,0,1.866,1.866H40.184a1.871,1.871,0,0,0,1.866-1.866V6.866A1.871,1.871,0,0,0,40.184,5ZM19.659,27.391l4.665-5.878,3.34,4.012,4.665-6.008,5.99,7.874Z" transform="translate(60.38 21.875)" fill="#5162dc"/>
  </g>
</svg>
