<svg xmlns="http://www.w3.org/2000/svg" xmlns:xlink="http://www.w3.org/1999/xlink" width="94" height="92" viewBox="0 0 94 92">
  <defs>
    <filter id="Rectangle_38" x="0" y="0" width="94" height="92" filterUnits="userSpaceOnUse">
      <feOffset dy="3" input="SourceAlpha"/>
      <feGaussianBlur stdDeviation="3" result="blur"/>
      <feFlood flood-opacity="0.161"/>
      <feComposite operator="in" in2="blur"/>
      <feComposite in="SourceGraphic"/>
    </filter>
  </defs>
  <g id="Group_67" data-name="Group 67" transform="translate(-35.381 5.867)">
    <g transform="matrix(1, 0, 0, 1, 35.38, -5.87)" filter="url(#Rectangle_38)">
      <rect id="Rectangle_38-2" data-name="Rectangle 38" width="76" height="74" rx="15" transform="translate(9 6)" fill="#fff"/>
    </g>
    <path id="ic_strikethrough_s_24px" d="M10.711,13.457A6.245,6.245,0,0,1,10,10.42a6.35,6.35,0,0,1,.727-3.037,6.889,6.889,0,0,1,2.019-2.346,10.421,10.421,0,0,1,3.092-1.509A14.321,14.321,0,0,1,19.8,3a12.261,12.261,0,0,1,4.019.618A8.984,8.984,0,0,1,26.9,5.328a7.41,7.41,0,0,1,1.964,2.6,7.845,7.845,0,0,1,.691,3.292H24.078a4.248,4.248,0,0,0-.273-1.546A2.974,2.974,0,0,0,23,8.438a3.867,3.867,0,0,0-1.364-.8,6.139,6.139,0,0,0-1.928-.291,6.426,6.426,0,0,0-1.873.236,4.013,4.013,0,0,0-1.309.655,3,3,0,0,0-.8,1,2.759,2.759,0,0,0-.273,1.2,2.617,2.617,0,0,0,1.346,2.2,10.477,10.477,0,0,0,2.564,1.273H10.984C10.893,13.766,10.784,13.6,10.711,13.457Zm25.024,5.911V15.73H3v3.637H20.5c.327.127.727.255,1,.364a7.567,7.567,0,0,1,1.582.927A2.455,2.455,0,0,1,23.86,21.7a3.783,3.783,0,0,1,.2,1.255,3.025,3.025,0,0,1-.255,1.2,2.569,2.569,0,0,1-.764.964,3.9,3.9,0,0,1-1.291.637,6.928,6.928,0,0,1-1.837.236,8.715,8.715,0,0,1-2.146-.236,4.628,4.628,0,0,1-1.655-.764,3.49,3.49,0,0,1-1.073-1.364,5.627,5.627,0,0,1-.455-2.2h-5.4A8.987,8.987,0,0,0,9.62,24.3,7.761,7.761,0,0,0,10.8,26.5a8.216,8.216,0,0,0,1.782,1.673A10.348,10.348,0,0,0,14.8,29.352a14.218,14.218,0,0,0,2.51.709,15.932,15.932,0,0,0,2.619.236,14.154,14.154,0,0,0,3.965-.509,9.6,9.6,0,0,0,3.037-1.437,6.43,6.43,0,0,0,1.946-2.31,6.864,6.864,0,0,0,.691-3.11A7.129,7.129,0,0,0,29.006,20a6.206,6.206,0,0,0-.309-.6h7.038Z" transform="translate(63.513 20.484)" fill="#ff4c4c"/>
  </g>
</svg>
