<svg xmlns="http://www.w3.org/2000/svg" xmlns:xlink="http://www.w3.org/1999/xlink" width="94" height="92" viewBox="0 0 94 92">
  <defs>
    <filter id="Rectangle_26" x="0" y="0" width="94" height="92" filterUnits="userSpaceOnUse">
      <feOffset dy="3" input="SourceAlpha"/>
      <feGaussianBlur stdDeviation="3" result="blur"/>
      <feFlood flood-opacity="0.161"/>
      <feComposite operator="in" in2="blur"/>
      <feComposite in="SourceGraphic"/>
    </filter>
  </defs>
  <g id="Group_68" data-name="Group 68" transform="translate(-35.405 5.833)">
    <g transform="matrix(1, 0, 0, 1, 35.4, -5.83)" filter="url(#Rectangle_26)">
      <rect id="Rectangle_26-2" data-name="Rectangle 26" width="76" height="74" rx="15" transform="translate(9 6)" fill="#fff"/>
    </g>
    <path id="ic_share_24px" d="M30.7,28a5.378,5.378,0,0,0-3.62,1.422L13.914,21.76a6.045,6.045,0,0,0,.166-1.293,6.045,6.045,0,0,0-.166-1.293l13.019-7.59A5.528,5.528,0,1,0,25.161,7.54a6.045,6.045,0,0,0,.166,1.293l-13.019,7.59a5.54,5.54,0,1,0,0,8.089l13.149,7.682a5.21,5.21,0,0,0-.148,1.2A5.392,5.392,0,1,0,30.7,28Z" transform="translate(103.298 17.546) rotate(90)" fill="#ffba49"/>
  </g>
</svg>
