<svg xmlns="http://www.w3.org/2000/svg" width="48.407" height="44.006" viewBox="0 0 48.407 44.006">
  <path id="ic_translate_24px" d="M27.118,30.758l-5.589-5.523.066-.066A38.548,38.548,0,0,0,29.758,10.8h6.447V6.4H20.8V2H16.4V6.4H1v4.379H25.578A34.573,34.573,0,0,1,18.6,22.573,34.424,34.424,0,0,1,13.52,15.2h-4.4a38.642,38.642,0,0,0,6.557,10.033L4.477,36.281,7.6,39.405l11-11,6.843,6.843,1.672-4.489ZM39.506,19.6H35.1l-9.9,26.4h4.4l2.464-6.6H42.52l2.486,6.6h4.4ZM33.741,35l3.565-9.527L40.87,35Z" transform="translate(-1 -2)" fill="#fff"/>
</svg>
